<svg width="56" height="56" viewBox="0 0 56 56" fill="none" xmlns="http://www.w3.org/2000/svg">
<g clip-path="url(#clip0_226_264)">
<path d="M52.5 24.5H31.5V3.5C31.5 1.56702 29.933 0 28 0C26.067 0 24.5 1.56702 24.5 3.5V24.5H3.5C1.56702 24.5 0 26.067 0 28C0 29.933 1.56702 31.5 3.5 31.5H24.5V52.5C24.5 54.433 26.067 56 28 56C29.933 56 31.5 54.433 31.5 52.5V31.5H52.5C54.433 31.5 56 29.933 56 28C56 26.067 54.433 24.5 52.5 24.5Z" fill="#F30123"/>
</g>
<defs>
<clipPath id="clip0_226_264">
<rect width="56" height="56" fill="white"/>
</clipPath>
</defs>
</svg>
