<svg width="235" height="146" viewBox="0 0 235 146" fill="none" xmlns="http://www.w3.org/2000/svg">
<path d="M117 16.2031C116.063 16.9375 115.156 17.6641 114.273 18.4531C99 31.7734 89.3984 51.2656 89.3984 73C89.3984 94.7344 98.9922 114.227 114.18 127.477L114.266 127.547C115.141 128.328 116.07 129.086 116.992 129.812C117.93 129.094 118.836 128.328 119.719 127.547C134.992 114.227 144.586 94.7344 144.586 73C144.586 51.2656 134.992 31.7734 119.805 18.5234L119.719 18.4531C118.844 17.6719 117.922 16.9297 116.992 16.2031H117ZM161.695 0.695312C161.656 0.695312 161.609 0.695312 161.555 0.695312C146.687 0.695312 132.883 5.20312 121.414 12.9297L121.672 12.7656C122.258 13.2266 122.789 13.7109 123.273 14.2187L123.281 14.2266C139.813 28.5703 150.203 49.6016 150.203 73.0625C150.203 96.4687 139.867 117.453 123.508 131.711L123.414 131.789C122.852 132.266 122.242 132.742 121.648 133.211C132.906 140.789 146.773 145.312 161.687 145.312C201.625 145.312 234 112.937 234 73C234 33.0625 201.633 0.703124 161.695 0.695312ZM110.594 131.797C111.156 132.273 111.766 132.75 112.359 133.219C101.109 140.789 87.25 145.305 72.3359 145.305C32.3984 145.305 0.03125 112.93 0.03125 73C0.03125 33.0703 32.4063 0.695312 72.3359 0.695312C87.2344 0.695312 101.086 5.20312 112.594 12.9297L112.336 12.7656C111.75 13.2266 111.219 13.7109 110.734 14.2187L110.727 14.2266C94.1953 28.5703 83.8047 49.6016 83.8047 73.0625C83.8047 96.4687 94.1406 117.453 110.5 131.711L110.594 131.797Z" fill="white" stroke="white" stroke-width="0.008"/>
</svg>
