<svg width="282" height="86" viewBox="0 0 282 86" fill="none" xmlns="http://www.w3.org/2000/svg">
<path d="M204.546 3.60398C198.038 1.23253 191.159 0.0425156 184.232 0.0899894C161.832 0.0899894 146.012 11.374 145.9 27.572C145.76 39.472 157.142 46.178 165.752 50.154C174.586 54.242 177.54 56.818 177.512 60.472C177.456 66.03 170.456 68.55 163.946 68.55C155 68.55 150.114 67.304 142.596 64.182L139.81 62.88L136.632 81.528C142.078 83.796 151.892 85.742 162.028 85.91C185.842 85.91 201.41 74.696 201.592 57.462C201.788 47.956 195.628 40.774 182.664 34.838C174.782 30.988 169.896 28.412 169.896 24.506C169.896 21.048 174.082 17.352 182.832 17.352C188.655 17.2111 194.443 18.3037 199.814 20.558L201.914 21.496L205.092 3.47798L204.546 3.60398ZM262.674 1.60199H245.174C239.728 1.60199 235.626 3.09999 233.246 8.50399L199.59 84.748H223.404L228.164 72.246L257.228 72.274C257.914 75.2 260.014 84.748 260.014 84.748H281.014L262.674 1.60199ZM113.686 0.901984H136.38L122.184 84.09H99.518L113.686 0.873986V0.901984ZM56.076 46.752L58.428 58.302L80.604 1.60199H104.642L68.928 84.636H44.946L25.346 14.328C25.0285 13.1687 24.283 12.173 23.26 11.542C16.1956 7.89271 8.71042 5.12337 0.971985 3.29598L1.27998 1.54598H37.806C42.762 1.74198 46.752 3.29598 48.082 8.58798L56.062 46.794L56.076 46.752ZM234.674 55.236L243.718 31.968C243.606 32.22 245.58 27.166 246.728 24.044L248.282 31.226L253.532 55.222H234.66L234.674 55.236Z" fill="white" stroke="white" stroke-width="0.00256"/>
</svg>
